<svg id="Calque_1" data-name="Calque 1" xmlns="http://www.w3.org/2000/svg" viewBox="0 0 250 259.11"><defs><style>.cls-1{fill:#fff;}.cls-2{fill:#d32020;}</style></defs><title>logo_auto_ecole</title><circle class="cls-1" cx="126.61" cy="115" r="97.64"/><path class="cls-2" d="M150.29,18.31a115,115,0,1,0,115,115A115.13,115.13,0,0,0,150.29,18.31Zm0,210.69a95.79,95.79,0,0,1-95.67-93.93L86.91,163.2h0l14.42,12.69.07-.08,0,0L152,118.2l38.1,43.19,0,0,12.71,14.43v0l.06.08,43-37.72A95.81,95.81,0,0,1,150.29,229Zm54.25-80.45L152,89,99.5,148.55,57.11,111.62A95.63,95.63,0,0,1,244,114.21Z" transform="translate(-23.63 -18.31)"/><circle class="cls-2" cx="128.51" cy="143.17" r="11.3"/><path class="cls-2" d="M35.3,219.6c-1.42-1.93-2.12-2.93-3.48-4.94l1.83-2.4c-1.64-2.48-2.45-3.75-4-6.36-1.19.22-1.79.34-3,.55-1.25-2.15-1.86-3.24-3-5.48a142.37,142.37,0,0,0,19.76-2.13c1.15,1.93,1.75,2.86,3,4.71A180.1,180.1,0,0,0,35.3,219.6Zm.33-9.69c2.12-2.58,3.21-3.85,5.41-6.35l0-.08c-3.27.81-4.91,1.18-8.23,1.86C33.88,207.2,34.45,208.12,35.63,209.91Z" transform="translate(-23.63 -18.31)"/><path class="cls-2" d="M53,232.29a4.45,4.45,0,0,1-4.45,1.23,11.14,11.14,0,0,1-5.47-3.75,11.38,11.38,0,0,1-3.15-6.07,4.76,4.76,0,0,1,1.93-4.5l10.08-7.93c1.32,1.69,2,2.52,3.37,4.14l-9.27,8-1,1.86.85,2,1.82,1,1.81-.7c3.63-3.39,5.45-5.07,9.07-8.44,1.44,1.56,2.17,2.31,3.65,3.8C58.51,226.68,56.66,228.55,53,232.29Z" transform="translate(-23.63 -18.31)"/><path class="cls-2" d="M74,237.72c-1.5-1.11-2.25-1.67-3.72-2.84L61.1,246.42c-1.82-1.44-2.72-2.19-4.49-3.72l9.6-11.15c-1.46-1.26-2.18-1.91-3.6-3.25L65,225.69a102.33,102.33,0,0,0,11,9.16Z" transform="translate(-23.63 -18.31)"/><path class="cls-2" d="M73.05,243.84a11.55,11.55,0,0,1,4.16-4,8.27,8.27,0,0,1,3.94-.71,9.38,9.38,0,0,1,4.26,1.52,9.06,9.06,0,0,1,2.76,2.29l1.39,2.69.24,3.22a13.83,13.83,0,0,1-1.51,4.08c-1.7,3.26-3.62,5.15-5.82,5.54a9.89,9.89,0,0,1-7-1.58,9.47,9.47,0,0,1-4.6-5.52C70.3,249.21,71,246.71,73.05,243.84Zm5.33,2.22-.64,1a17.17,17.17,0,0,0-1.82,3.35l.2,1.82,1.51,1.55,1.82.49,1.77-.77a13.88,13.88,0,0,0,2.15-3.07,16.17,16.17,0,0,0,1.47-3.09l-.08-2-1.31-1.52-2.59-.3A6.22,6.22,0,0,0,78.38,246.06Z" transform="translate(-23.63 -18.31)"/><path class="cls-2" d="M96.37,261.65c-2.73-1.13-4.08-1.75-6.76-3L90.9,256c2.61,1.26,3.94,1.86,6.61,3Z" transform="translate(-23.63 -18.31)"/><path class="cls-2" d="M110.93,271.81a118.65,118.65,0,0,1-12.34-4.06c2.64-6.82,4-10.23,6.58-17.05a104.57,104.57,0,0,0,10.09,3.35c-.4,1.36-.59,2-1,3.4-2.27-.65-3.4-1-5.64-1.76l-1.2,3.52c2,.67,3,1,5,1.56-.39,1.29-.58,2-1,3.24-2.05-.6-3.07-.92-5.1-1.61-.52,1.54-.78,2.3-1.31,3.83,2.74.93,4.12,1.34,6.89,2.12Zm6.44-23.2c-2.31,1.16-3.49,1.71-5.92,2.77-1.22-.41-1.83-.61-3-1,1.55-1.3,2.3-2,3.78-3.33C114.24,247.7,115.28,248,117.37,248.61Z" transform="translate(-23.63 -18.31)"/><path class="cls-2" d="M130.44,275.54a13.63,13.63,0,0,1-4.8-.06,11.42,11.42,0,0,1-7.17-3.87c-1.65-2-2-4.55-1.29-7.53s2.3-5.16,4.46-6.32a10.09,10.09,0,0,1,6.73-1.1,15,15,0,0,1,4.44,1.61c-.21,1.52-.32,2.27-.53,3.79a18.46,18.46,0,0,0-2.4-1.25l-1.22-.31a5.39,5.39,0,0,0-3.66.66c-1.15.64-2,2-2.38,4s-.26,3.74.59,4.77a5.82,5.82,0,0,0,3.59,1.94,8.75,8.75,0,0,0,4.21-.48C130.78,273.08,130.67,273.9,130.44,275.54Z" transform="translate(-23.63 -18.31)"/><path class="cls-2" d="M135.37,267.17a11.68,11.68,0,0,1,1.69-5.5,8.09,8.09,0,0,1,3-2.54,9.18,9.18,0,0,1,4.37-.71,8.86,8.86,0,0,1,3.44.69l2.46,1.7,1.72,2.71a14.42,14.42,0,0,1,.62,4.32c.06,3.67-.72,6.22-2.43,7.62a9.66,9.66,0,0,1-6.74,1.94,9.14,9.14,0,0,1-6.51-2.62C135.51,273.19,135,270.65,135.37,267.17Zm5.58-.63-.08,1.17a16.81,16.81,0,0,0,0,3.81l1,1.5,2,.62,1.78-.42,1.17-1.54a14.36,14.36,0,0,0,.41-3.71,15.8,15.8,0,0,0-.19-3.42l-1-1.67-1.83-.69-2.36,1A6.42,6.42,0,0,0,141,266.54Z" transform="translate(-23.63 -18.31)"/><path class="cls-2" d="M170.08,275.84c-4.8.66-7.22.88-12.05,1.15-.4-7.29-.59-10.94-1-18.23,1.93-.1,2.9-.18,4.83-.36.55,5.85.82,8.77,1.37,14.6,2.54-.22,3.81-.37,6.34-.71Z" transform="translate(-23.63 -18.31)"/><path class="cls-2" d="M187,272.5a117.13,117.13,0,0,1-12.65,2.69c-1.24-7.19-1.84-10.8-3.07-18,4.17-.71,6.25-1.15,10.35-2.19.36,1.37.54,2.06.89,3.43-2.29.58-3.43.85-5.75,1.32.32,1.45.47,2.18.77,3.64,2-.43,3.06-.66,5.07-1.16.34,1.31.5,2,.83,3.28-2.08.52-3.11.76-5.2,1.18.33,1.59.49,2.37.83,3.95,2.82-.58,4.22-.9,7-1.63C186.45,270.41,186.64,271.1,187,272.5Z" transform="translate(-23.63 -18.31)"/><path class="cls-2" d="M214.62,241.34c2.16,7.23,3.13,10.9,4.79,18.33-1.64.9-2.45,1.33-4.1,2.15-3.48-3.94-5.17-6-8.45-10l-.08,0c1.15,5.1,1.65,7.67,2.57,12.83-1.81.82-2.72,1.21-4.55,2-4.69-6-6.93-9.05-11.14-15.29,1.88-.69,2.81-1.05,4.67-1.82.9,1.22,1.35,1.82,2.27,3,1.66,2.82,2.5,4.21,4.21,7l.08,0c-.82-4.77-1.29-7.14-2.29-11.85,1.48-.67,2.22-1,3.68-1.76,3.17,3.9,4.79,5.83,8.14,9.61l.07,0c-1.1-3-1.67-4.51-2.83-7.5a31.35,31.35,0,0,1-1.18-4.25C212.15,242.8,213,242.32,214.62,241.34Z" transform="translate(-23.63 -18.31)"/><path class="cls-2" d="M241.49,244.7c-1.76,1.46-2.65,2.17-4.47,3.55l-2.41-1.77c-2.21,1.68-3.33,2.47-5.61,4,.32,1.17.48,1.75.79,2.92-1.87,1.25-2.82,1.85-4.74,3a166.38,166.38,0,0,0-4-19.21c1.69-1.16,2.52-1.75,4.15-3A172.74,172.74,0,0,0,241.49,244.7Zm-9.29-.09c-2.63-2-3.93-3.07-6.48-5.18l-.06,0c1.07,3.17,1.57,4.78,2.51,8C229.81,246.36,230.61,245.79,232.2,244.61Z" transform="translate(-23.63 -18.31)"/><path class="cls-2" d="M254,232.93a116.34,116.34,0,0,1-9.18,8.89c-4.83-5.49-7.23-8.25-12.06-13.74,1.52-1.35,2.28-2,3.75-3.46l10.12,10.64c2-1.86,2.9-2.83,4.76-4.81Z" transform="translate(-23.63 -18.31)"/><path class="cls-2" d="M265.44,219.21a119,119,0,0,1-8.23,10.25l-13.63-12.17c1.38-1.56,2-2.37,3.38-4,4.52,3.73,6.8,5.6,11.34,9.32,1.73-2.17,2.59-3.26,4.25-5.54Z" transform="translate(-23.63 -18.31)"/><path class="cls-2" d="M260.7,192.43c2.52,4,3.71,6,6,10.21l7,4.1c-1.29,2.19-1.94,3.26-3.3,5.34l-6.74-4.39a105.56,105.56,0,0,1-12.22-.18c1.36-1.89,2-2.86,3.3-4.83,2.64.19,4,.25,6.65.31-1.29-2.32-1.95-3.47-3.31-5.71C259.12,195.37,259.66,194.4,260.7,192.43Z" transform="translate(-23.63 -18.31)"/></svg>